<?xml version="1.0" encoding="UTF-8" standalone="no"?>
<svg width="327px" height="358px" viewBox="0 0 327 358" version="1.1" xmlns="http://www.w3.org/2000/svg" xmlns:xlink="http://www.w3.org/1999/xlink">
    <!-- Generator: Sketch 39.1 (31720) - http://www.bohemiancoding.com/sketch -->
    <title>Polygon 3</title>
    <desc>Created with Sketch.</desc>
    <defs></defs>
    <g id="Hack-Day" stroke="none" stroke-width="1" fill="none" fill-rule="evenodd">
        <g id="Widescreen-variant-1" transform="translate(-457.000000, -2912.000000)" stroke-width="20" stroke="#FFFFFF" fill="#16A7C7">
            <g id="Group-5" transform="translate(303.000000, 2792.000000)">
                <g id="Group-7">
                    <g id="Group-6" transform="translate(164.000000, 130.000000)">
                        <path d="M127.305222,7.000296 C141.654284,-1.28413873 164.917953,-1.28457558 179.267771,7.000296 L280.591718,65.499704 C294.94078,73.7841387 306.572993,93.9308488 306.572993,110.500592 L306.572993,227.499408 C306.572993,244.068277 294.941537,264.215424 280.591718,272.500296 L179.267771,330.999704 C164.918709,339.284139 141.65504,339.284576 127.305222,330.999704 L25.9812748,272.500296 C11.6322129,264.215861 -3.98432231e-14,244.069151 -4.90038349e-14,227.499408 L-1.13686838e-13,110.500592 C-1.22846967e-13,93.9317225 11.6314563,73.7845756 25.9812748,65.499704 L127.305222,7.000296 Z" id="Polygon-3"></path>
                    </g>
                </g>
            </g>
        </g>
    </g>
</svg>