<?xml version="1.0" encoding="UTF-8" standalone="no"?>
<svg width="307px" height="338px" viewBox="0 0 307 338" version="1.1" xmlns="http://www.w3.org/2000/svg" xmlns:xlink="http://www.w3.org/1999/xlink">
    <!-- Generator: Sketch 39.1 (31720) - http://www.bohemiancoding.com/sketch -->
    <title>Polygon 3</title>
    <desc>Created with Sketch.</desc>
    <defs></defs>
    <g id="Hack-Day" stroke="none" stroke-width="1" fill="none" fill-rule="evenodd" fill-opacity="0.6">
        <g id="Widescreen-variant-1" transform="translate(-419.000000, -2101.000000)" fill="#410A73">
            <g id="Group-8" transform="translate(419.000000, 1980.000000)">
                <g id="Group-6" transform="translate(0.000000, 121.000000)">
                    <path d="M127.305222,7.000296 C141.654284,-1.28413873 164.917953,-1.28457558 179.267771,7.000296 L280.591718,65.499704 C294.94078,73.7841387 306.572993,93.9308488 306.572993,110.500592 L306.572993,227.499408 C306.572993,244.068277 294.941537,264.215424 280.591718,272.500296 L179.267771,330.999704 C164.918709,339.284139 141.65504,339.284576 127.305222,330.999704 L25.9812748,272.500296 C11.6322129,264.215861 -1.14215136e-14,244.069151 -2.05821255e-14,227.499408 L-8.52651283e-14,110.500592 C-9.44252571e-14,93.9317225 11.6314563,73.7845756 25.9812748,65.499704 L127.305222,7.000296 Z" id="Polygon-3"></path>
                </g>
            </g>
        </g>
    </g>
</svg>