<?xml version="1.0" encoding="UTF-8" standalone="no"?>
<svg width="307px" height="338px" viewBox="0 0 307 338" version="1.1" xmlns="http://www.w3.org/2000/svg" xmlns:xlink="http://www.w3.org/1999/xlink">
    <!-- Generator: Sketch 39.1 (31720) - http://www.bohemiancoding.com/sketch -->
    <title>Group 6</title>
    <desc>Created with Sketch.</desc>
    <defs></defs>
    <g id="Hack-Day" stroke="none" stroke-width="1" fill="none" fill-rule="evenodd">
        <g id="Widescreen-variant-1" transform="translate(-419.000000, -2101.000000)">
            <g id="Group-8" transform="translate(419.000000, 1980.000000)">
                <g id="Group-6" transform="translate(0.000000, 121.000000)">
                    <path d="M127.305222,7.000296 C141.654284,-1.28413873 164.917953,-1.28457558 179.267771,7.000296 L280.591718,65.499704 C294.94078,73.7841387 306.572993,93.9308488 306.572993,110.500592 L306.572993,227.499408 C306.572993,244.068277 294.941537,264.215424 280.591718,272.500296 L179.267771,330.999704 C164.918709,339.284139 141.65504,339.284576 127.305222,330.999704 L25.9812748,272.500296 C11.6322129,264.215861 1.59108743e-13,244.069151 1.49948131e-13,227.499408 L8.52651283e-14,110.500592 C7.61049995e-14,93.9317225 11.6314563,73.7845756 25.9812748,65.499704 L127.305222,7.000296 Z" id="Polygon-3" fill-opacity="0.6" fill="#410A73"></path>
                    <text id="1.2k" font-family="ReemKufi-Regular, Reem Kufi" font-size="108" font-weight="normal" fill="#FFFFFF">
                        <tspan x="68.514" y="203">1.2k</tspan>
                    </text>
                    <text id="Hackers" font-family="ReemKufi-Regular, Reem Kufi" font-size="24" font-weight="normal" fill="#FFFFFF">
                        <tspan x="113.26" y="236">Hackers</tspan>
                    </text>
                </g>
            </g>
        </g>
    </g>
</svg>