<?xml version="1.0" encoding="utf-8"?>
<!-- Generator: Adobe Illustrator 16.0.0, SVG Export Plug-In . SVG Version: 6.00 Build 0)  -->
<!DOCTYPE svg PUBLIC "-//W3C//DTD SVG 1.1//EN" "http://www.w3.org/Graphics/SVG/1.1/DTD/svg11.dtd">
<svg version="1.1" id="Layer_1" xmlns="http://www.w3.org/2000/svg" xmlns:xlink="http://www.w3.org/1999/xlink" x="0px" y="0px"
	 width="295.656px" height="323.493px" viewBox="0 0 295.656 323.493" enable-background="new 0 0 295.656 323.493"
	 xml:space="preserve">
<g>
	<path fill-rule="evenodd" clip-rule="evenodd" fill="#FEFEFE" d="M295.656,222.053c-0.602,1.742-1.007,3.464-1.355,5.197
		c-1.343,6.68-4.349,12.682-7.972,18.322c-2.731,4.251-5.551,8.559-9.9,11.471c-4.819,3.228-9.538,6.623-14.492,9.63
		c-7.715,4.682-15.59,9.099-23.4,13.623c-5.874,3.402-11.751,6.8-17.63,10.196c-7.413,4.283-14.834,8.555-22.243,12.849
		c-6.675,3.869-13.312,7.805-20.013,11.627c-5.354,3.054-10.67,6.218-16.95,7.128c-2.088,0.303-4.13,0.922-6.192,1.396
		c-5.28,0-10.56,0-15.839,0c-0.149-0.15-0.293-0.425-0.449-0.434c-8.136-0.417-15.139-4.078-21.996-7.935
		c-9.335-5.25-18.49-10.816-27.76-16.183c-8.937-5.174-17.943-10.228-26.879-15.402c-10.874-6.298-21.677-12.719-32.569-18.985
		c-6.045-3.477-11.671-7.354-16.184-12.818c-4.888-5.918-8.598-12.424-10.994-19.68c-1.069-3.237-1.899-6.554-2.837-9.835
		c0-40.316,0-80.633,0-120.95c0.221-0.931,0.46-1.859,0.661-2.795c1.478-6.922,4.078-13.38,7.815-19.401
		c3.88-6.251,8.398-11.934,14.629-15.976c4.72-3.062,9.604-5.874,14.454-8.731c6.642-3.915,13.312-7.783,19.986-11.643
		c6.605-3.82,13.24-7.59,19.846-11.41c6.674-3.86,13.324-7.761,19.993-11.63c6.667-3.868,13.258-7.88,20.047-11.52
		c4.446-2.383,9.149-4.309,13.813-6.258c2.072-0.866,4.331-1.285,6.505-1.907c6.56,0,13.119,0,19.679,0
		c0.148,0.152,0.282,0.416,0.449,0.439c6.581,0.922,12.741,3.238,18.473,6.417c9.042,5.013,17.814,10.51,26.764,15.694
		c10.079,5.838,20.25,11.518,30.339,17.337c11.234,6.479,22.358,13.15,33.648,19.529c9.623,5.437,16.689,13.15,21.887,22.812
		c3.27,6.081,5.493,12.452,6.669,19.257V222.053z M278.931,162.166c0-15.674,0.317-31.357-0.083-47.021
		c-0.468-18.314-8.493-32.781-24.308-42.262c-16.986-10.182-34.276-19.857-51.438-29.747c-10.724-6.179-21.177-12.907-32.25-18.38
		c-15.15-7.489-30.837-7.628-45.745,0.798C97.855,40.958,70.753,56.634,43.783,72.526c-16.705,9.843-24.994,24.959-25.096,44.292
		c-0.162,30.708-0.321,61.421,0.061,92.126c0.228,18.334,8.575,32.665,24.289,42.289c10.213,6.255,20.707,12.051,31.081,18.043
		c17.013,9.826,33.855,19.963,51.096,29.374c15.971,8.719,32.332,8.325,48.279-0.474c10.207-5.632,20.225-11.61,30.313-17.455
		c17.346-10.049,34.934-19.709,51.946-30.294c15.266-9.497,22.855-23.967,23.13-41.96
		C279.118,193.038,278.931,177.6,278.931,162.166z"/>
	<path fill-rule="evenodd" clip-rule="evenodd" fill="#19A2C4" d="M278.931,162.166c0,15.435,0.187,30.872-0.049,46.303
		c-0.274,17.993-7.864,32.463-23.13,41.96c-17.013,10.585-34.601,20.245-51.946,30.294c-10.089,5.845-20.106,11.823-30.313,17.455
		c-15.947,8.799-32.309,9.192-48.279,0.474c-17.24-9.411-34.083-19.548-51.096-29.374c-10.374-5.992-20.868-11.788-31.081-18.043
		c-15.714-9.624-24.061-23.955-24.289-42.289c-0.382-30.705-0.223-61.418-0.061-92.126c0.102-19.333,8.391-34.449,25.096-44.292
		c26.97-15.892,54.072-31.569,81.324-46.973c14.908-8.426,30.595-8.288,45.745-0.798c11.073,5.474,21.526,12.201,32.25,18.38
		c17.162,9.89,34.452,19.565,51.438,29.747c15.814,9.48,23.84,23.947,24.308,42.262
		C279.249,130.809,278.931,146.491,278.931,162.166z M153.662,111.516c0,6.478,0.044,12.956-0.032,19.433
		c-0.018,1.532,0.366,2.064,1.984,2.038c5.837-0.096,11.678-0.131,17.513,0.015c1.94,0.048,2.2-0.669,2.167-2.337
		c-0.098-4.956,0.012-9.917-0.063-14.874c-0.022-1.475,0.264-2.119,1.941-2.081c4.874,0.112,9.753,0.041,14.63,0.039
		c7.534-0.002,13.172,3.385,17.079,9.708c5.998,9.708,7.189,20.132,4.478,31.114c-2.317,9.383-8.116,15.239-17.639,17.056
		c-3.587,0.684-7.29,0.984-10.947,1.037c-9.594,0.14-19.192,0.104-28.788,0c-1.94-0.021-2.396,0.571-2.364,2.423
		c0.11,6.316,0.086,12.635,0.012,18.952c-0.019,1.57,0.271,2.247,2.064,2.231c8.075-0.072,16.157,0.203,24.227-0.026
		c7.173-0.204,14.432-0.313,21.477-1.504c18.032-3.049,30.172-13.354,35.826-30.951c3.341-10.393,3.598-20.984,2.369-31.745
		c-2.077-18.198-17.756-41.277-45.208-41.846c-12.862-0.267-25.731-0.153-38.598-0.282c-1.67-0.017-2.187,0.481-2.163,2.166
		C153.715,98.56,153.662,105.038,153.662,111.516z M146.307,90.307c-14.5,0-28.252,0-42.004,0c-0.561,0-1.126-0.046-1.679,0.017
		c-1.03,0.118-2.088,0.186-3.075,0.474c-7.121,2.083-13.746,5.119-19.439,10.012c-13.406,11.521-12.644,32.102,1.764,42.01
		c3.457,2.377,7.405,4.068,11.208,5.909c6.248,3.024,12.646,5.751,18.791,8.965c1.626,0.85,3.195,2.847,3.691,4.625
		c1.589,5.688-2.165,10.758-8.072,10.979c-6.948,0.261-13.91,0.166-20.866,0.138c-1.905-0.008-3.326,0.556-4.562,2.068
		c-5.265,6.434-10.619,12.796-15.926,19.196c-0.317,0.382-0.518,0.859-0.913,1.529c14.066,0,27.808,0.019,41.55-0.02
		c2.071-0.006,4.147-0.233,6.215-0.424c15.225-1.406,26.145-10.821,28.79-25.391c2.134-11.757-0.689-21.939-11.104-28.996
		c-3.231-2.19-6.565-4.272-10.021-6.08c-6.646-3.476-13.463-6.623-20.108-10.097c-3.915-2.047-4.694-5.204-2.455-9.019
		c1.763-3.002,4.362-4.875,7.979-4.918c6.157-0.073,12.313-0.125,18.471-0.109c1.891,0.005,3.345-0.559,4.617-2.024
		c2.462-2.835,5.089-5.527,7.621-8.304C139.825,97.509,142.843,94.143,146.307,90.307z M72.954,221.975c0.008,0,0.017,0,0.025,0
		c0,4.155-0.078,8.313,0.024,12.465c0.085,3.493,2.485,6.328,5.568,6.911c1.338,0.253,2.083,0.032,2.021-1.631
		c-0.115-3.112,0.013-6.232-0.053-9.348c-0.026-1.257,0.423-1.67,1.66-1.646c3.195,0.063,6.394,0.083,9.588-0.009
		c1.457-0.043,1.958,0.416,1.909,1.895c-0.1,2.953,0.076,5.918-0.064,8.867c-0.101,2.098,0.77,2.269,2.425,1.697
		c3.28-1.13,5.002-3.587,5.069-6.856c0.169-8.307,0.059-16.62,0.074-24.931c0.003-1.337-0.594-1.608-1.832-1.329
		c-3.035,0.685-5.42,3.403-5.699,6.627c-0.179,2.068,0.356,5.076-0.768,5.958c-1.348,1.058-4.119,0.302-6.274,0.331
		c-0.16,0.002-0.32,0.008-0.479-0.001c-1.81-0.101-4.146,0.43-5.264-0.502c-0.908-0.758-0.364-3.269-0.447-5.002
		c-0.182-3.819-2.141-6.391-5.398-7.344c-1.625-0.477-2.145-0.069-2.11,1.621C73.009,213.824,72.954,217.9,72.954,221.975z
		 M208.482,234.221c-2.479,0-4.958,0.051-7.435-0.021c-1.236-0.036-1.49,0.407-1.265,1.55c0.583,2.945,2.897,5.494,6.011,5.688
		c4.129,0.259,8.312,0.329,12.427-0.032c4.865-0.427,8.563-5.014,8.598-9.979c0.035-5.069-3.692-9.572-8.66-10.199
		c-2.286-0.287-4.621-0.199-6.935-0.246c-2.878-0.059-4.109-0.918-4.066-2.892c0.042-1.884,1.243-2.744,3.95-2.779
		c1.918-0.024,3.839,0.055,5.755-0.021c3.2-0.125,6.32-2.657,6.805-5.45c0.213-1.232,0.169-2.108-1.581-2.055
		c-4.233,0.128-8.479-0.091-12.707,0.109c-5.914,0.279-9.97,4.897-9.786,10.827c0.172,5.518,4.593,9.666,10.395,9.735
		c1.918,0.023,3.837,0.024,5.756-0.001c1.942-0.026,3.304,0.714,3.492,2.782c0.162,1.781-1.238,2.929-3.559,2.971
		C213.279,234.253,210.88,234.219,208.482,234.221z M168.663,220.417c0.07,0,0.142,0,0.212,0.001c0,4.71-0.043,9.42,0.015,14.13
		c0.042,3.472,2.438,6.323,5.55,6.863c1.371,0.237,2.088-0.026,2.02-1.656c-0.108-2.633-0.041-5.273-0.015-7.91
		c0.004-0.448,0.171-0.896,0.264-1.345c0.46,0.224,1.019,0.347,1.365,0.686c2.796,2.738,5.509,5.562,8.332,8.271
		c2.735,2.625,5.983,2.946,8.978,1.16c1.435-0.855,1.691-1.496,0.34-2.801c-4.483-4.327-8.815-8.812-13.271-13.17
		c-0.953-0.931-1.028-1.463-0.026-2.425c3.803-3.652,7.467-7.449,11.289-11.08c1.27-1.206,0.823-1.711-0.382-2.39
		c-2.843-1.602-6.108-1.233-8.596,1.146c-2.135,2.043-4.174,4.188-6.291,6.251c-0.499,0.486-1.139,0.829-1.714,1.237
		c-0.199-0.645-0.487-1.275-0.583-1.934c-0.607-4.175-2.474-6.656-5.464-7.383c-1.45-0.353-2.073-0.034-2.044,1.562
		C168.708,213.224,168.663,216.821,168.663,220.417z M152.706,207.83c-8.004-0.022-14.596,4.883-16.833,12.141
		c-2.055,6.669,0.62,14.671,6.192,18.526c6.461,4.469,14.359,4.398,20.264-0.313c1.115-0.89,1.89-2.209,2.821-3.33
		c-1.556-0.844-3.035-1.938-4.693-2.438c-1.021-0.309-2.328,0.23-3.479,0.503c-0.766,0.183-1.467,0.622-2.226,0.853
		c-4.97,1.507-10.355-1.42-11.716-6.346c-1.438-5.198,1.5-10.638,6.738-11.604c2.205-0.406,4.732,0.13,6.947,0.792
		c2.73,0.816,5.129,0.852,7.463-0.881c1.133-0.84,1.283-1.566,0.217-2.67C161.044,209.596,156.916,208.042,152.706,207.83z
		 M119.228,224.704c2.14,4.249,4.232,7.937,5.883,11.813c1.664,3.908,4.527,5.25,8.512,5.228c1.95-0.011,2.583-0.199,1.511-2.295
		c-5.054-9.879-9.966-19.831-14.937-29.753c-0.26-0.519-0.59-1.003-1.006-1.702c-2.759,5.517-5.398,10.797-8.04,16.075
		c-2.644,5.283-5.302,10.561-7.917,15.857c-0.319,0.647-1.314,1.768,0.513,1.754c3.912-0.029,7.837-0.003,11.73-0.321
		c2.512-0.205,4.9-3.037,5.33-5.556c0.188-1.096-0.049-1.659-1.302-1.599c-1.493,0.071-2.992,0.017-4.801,0.017
		C116.219,231.034,117.608,228.113,119.228,224.704z"/>
	<path fill-rule="evenodd" clip-rule="evenodd" fill="#FEFEFE" d="M153.662,111.516c0-6.478,0.054-12.957-0.036-19.433
		c-0.023-1.685,0.493-2.182,2.163-2.166c12.866,0.129,25.735,0.015,38.598,0.282c27.452,0.569,43.131,23.648,45.208,41.846
		c1.229,10.761,0.972,21.352-2.369,31.745c-5.654,17.597-17.794,27.902-35.826,30.951c-7.045,1.191-14.304,1.3-21.477,1.504
		c-8.069,0.229-16.151-0.046-24.227,0.026c-1.793,0.016-2.083-0.661-2.064-2.231c0.074-6.317,0.099-12.636-0.012-18.952
		c-0.032-1.852,0.424-2.443,2.364-2.423c9.596,0.103,19.194,0.139,28.788,0c3.657-0.053,7.36-0.353,10.947-1.037
		c9.522-1.817,15.321-7.673,17.639-17.056c2.712-10.982,1.521-21.407-4.478-31.114c-3.907-6.324-9.545-9.71-17.079-9.708
		c-4.877,0.001-9.756,0.073-14.63-0.039c-1.678-0.039-1.964,0.606-1.941,2.081c0.075,4.957-0.034,9.917,0.063,14.874
		c0.033,1.668-0.227,2.385-2.167,2.337c-5.835-0.146-11.676-0.111-17.513-0.015c-1.618,0.026-2.002-0.506-1.984-2.038
		C153.706,124.472,153.662,117.994,153.662,111.516z"/>
	<path fill-rule="evenodd" clip-rule="evenodd" fill="#FEFEFE" d="M146.307,90.307c-3.464,3.835-6.482,7.202-9.528,10.542
		c-2.532,2.776-5.159,5.468-7.621,8.304c-1.272,1.465-2.727,2.029-4.617,2.024c-6.157-0.017-12.313,0.036-18.471,0.109
		c-3.616,0.043-6.216,1.917-7.979,4.918c-2.239,3.814-1.46,6.972,2.455,9.019c6.646,3.475,13.463,6.621,20.108,10.097
		c3.456,1.808,6.79,3.89,10.021,6.08c10.414,7.057,13.237,17.239,11.104,28.996c-2.646,14.569-13.565,23.984-28.79,25.391
		c-2.067,0.191-4.144,0.418-6.215,0.424c-13.742,0.038-27.483,0.02-41.55,0.02c0.395-0.67,0.596-1.147,0.913-1.529
		c5.308-6.399,10.661-12.762,15.926-19.196c1.236-1.512,2.657-2.076,4.562-2.068c6.956,0.028,13.918,0.123,20.866-0.138
		c5.907-0.221,9.661-5.292,8.072-10.979c-0.496-1.777-2.065-3.774-3.691-4.625c-6.146-3.214-12.543-5.941-18.791-8.965
		c-3.803-1.841-7.751-3.532-11.208-5.909c-14.408-9.908-15.17-30.488-1.764-42.01c5.693-4.893,12.318-7.93,19.439-10.012
		c0.987-0.289,2.045-0.356,3.075-0.474c0.553-0.063,1.118-0.017,1.679-0.017C118.055,90.307,131.807,90.307,146.307,90.307z"/>
	<path fill-rule="evenodd" clip-rule="evenodd" fill="#FEFEFE" d="M72.954,221.975c0-4.075,0.056-8.151-0.026-12.226
		c-0.035-1.69,0.485-2.098,2.11-1.621c3.257,0.953,5.216,3.524,5.398,7.344c0.083,1.733-0.461,4.244,0.447,5.002
		c1.118,0.932,3.455,0.401,5.264,0.502c0.16,0.009,0.32,0.003,0.479,0.001c2.155-0.029,4.927,0.727,6.274-0.331
		c1.124-0.882,0.589-3.89,0.768-5.958c0.279-3.224,2.664-5.942,5.699-6.627c1.238-0.279,1.835-0.008,1.832,1.329
		c-0.016,8.311,0.095,16.624-0.074,24.931c-0.067,3.27-1.789,5.727-5.069,6.856c-1.655,0.571-2.525,0.4-2.425-1.697
		c0.141-2.949-0.035-5.914,0.064-8.867c0.049-1.479-0.452-1.938-1.909-1.895c-3.194,0.092-6.393,0.071-9.588,0.009
		c-1.237-0.024-1.687,0.389-1.66,1.646c0.066,3.115-0.062,6.235,0.053,9.348c0.062,1.663-0.683,1.884-2.021,1.631
		c-3.083-0.583-5.483-3.418-5.568-6.911c-0.102-4.152-0.024-8.31-0.024-12.465C72.97,221.975,72.962,221.975,72.954,221.975z"/>
	<path fill-rule="evenodd" clip-rule="evenodd" fill="#FEFEFE" d="M208.482,234.22c2.398-0.001,4.797,0.033,7.194-0.011
		c2.32-0.042,3.721-1.189,3.559-2.971c-0.188-2.068-1.55-2.809-3.492-2.782c-1.919,0.025-3.838,0.024-5.756,0.001
		c-5.802-0.069-10.223-4.218-10.395-9.735c-0.184-5.93,3.872-10.548,9.786-10.827c4.228-0.2,8.474,0.019,12.707-0.109
		c1.75-0.054,1.794,0.822,1.581,2.055c-0.484,2.793-3.604,5.325-6.805,5.45c-1.916,0.075-3.837-0.004-5.755,0.021
		c-2.707,0.035-3.908,0.896-3.95,2.779c-0.043,1.974,1.188,2.833,4.066,2.892c2.313,0.047,4.648-0.041,6.935,0.246
		c4.968,0.627,8.695,5.13,8.66,10.199c-0.035,4.965-3.732,9.552-8.598,9.979c-4.115,0.361-8.298,0.291-12.427,0.032
		c-3.113-0.194-5.428-2.743-6.011-5.688c-0.226-1.143,0.028-1.586,1.265-1.55C203.524,234.272,206.003,234.221,208.482,234.22z"/>
	<path fill-rule="evenodd" clip-rule="evenodd" fill="#FEFEFE" d="M168.663,220.417c0-3.596,0.045-7.192-0.021-10.787
		c-0.029-1.596,0.594-1.914,2.044-1.562c2.99,0.727,4.856,3.208,5.464,7.383c0.096,0.658,0.384,1.289,0.583,1.934
		c0.575-0.408,1.215-0.751,1.714-1.237c2.117-2.063,4.156-4.208,6.291-6.251c2.487-2.379,5.753-2.747,8.596-1.146
		c1.205,0.679,1.651,1.184,0.382,2.39c-3.822,3.631-7.486,7.428-11.289,11.08c-1.002,0.962-0.927,1.494,0.026,2.425
		c4.455,4.358,8.787,8.843,13.271,13.17c1.352,1.305,1.095,1.945-0.34,2.801c-2.994,1.786-6.242,1.465-8.978-1.16
		c-2.823-2.709-5.536-5.532-8.332-8.271c-0.347-0.339-0.905-0.462-1.365-0.686c-0.093,0.448-0.26,0.896-0.264,1.345
		c-0.026,2.637-0.094,5.277,0.015,7.91c0.068,1.63-0.648,1.894-2.02,1.656c-3.112-0.54-5.508-3.392-5.55-6.863
		c-0.058-4.71-0.015-9.42-0.015-14.13C168.804,220.417,168.733,220.417,168.663,220.417z"/>
	<path fill-rule="evenodd" clip-rule="evenodd" fill="#FEFEFE" d="M152.706,207.83c4.21,0.213,8.339,1.767,11.695,5.234
		c1.066,1.104,0.916,1.83-0.217,2.67c-2.334,1.732-4.732,1.697-7.463,0.881c-2.215-0.662-4.742-1.198-6.947-0.792
		c-5.238,0.966-8.176,6.405-6.738,11.604c1.36,4.926,6.746,7.853,11.716,6.346c0.759-0.23,1.46-0.67,2.226-0.853
		c1.151-0.272,2.459-0.812,3.479-0.503c1.658,0.5,3.138,1.594,4.693,2.438c-0.932,1.121-1.706,2.44-2.821,3.33
		c-5.904,4.711-13.803,4.781-20.264,0.313c-5.572-3.855-8.247-11.857-6.192-18.526C138.11,212.712,144.702,207.807,152.706,207.83z"
		/>
	<path fill-rule="evenodd" clip-rule="evenodd" fill="#FEFEFE" d="M119.228,224.704c-1.62,3.409-3.009,6.33-4.523,9.518
		c1.809,0,3.308,0.055,4.801-0.017c1.253-0.061,1.489,0.503,1.302,1.599c-0.43,2.519-2.818,5.351-5.33,5.556
		c-3.894,0.318-7.818,0.292-11.73,0.321c-1.827,0.014-0.832-1.106-0.513-1.754c2.615-5.297,5.273-10.574,7.917-15.857
		c2.642-5.278,5.281-10.559,8.04-16.075c0.416,0.699,0.746,1.184,1.006,1.702c4.971,9.922,9.883,19.874,14.937,29.753
		c1.072,2.096,0.439,2.284-1.511,2.295c-3.984,0.022-6.848-1.319-8.512-5.228C123.46,232.64,121.368,228.953,119.228,224.704z"/>
</g>
</svg>
