<?xml version="1.0" encoding="utf-8"?>
<!-- Generator: Adobe Illustrator 17.0.0, SVG Export Plug-In . SVG Version: 6.00 Build 0)  -->
<!DOCTYPE svg PUBLIC "-//W3C//DTD SVG 1.1//EN" "http://www.w3.org/Graphics/SVG/1.1/DTD/svg11.dtd">
<svg version="1.1" id="Layer_1" xmlns="http://www.w3.org/2000/svg" xmlns:xlink="http://www.w3.org/1999/xlink" x="0px" y="0px"
	 width="404.836px" height="431.434px" viewBox="0 0 404.836 431.434" enable-background="new 0 0 404.836 431.434"
	 xml:space="preserve">
<path fill="#4E3863" d="M202.596,215.717H0c0,28.349-0.018,56.698,0,85.046c0.005,7.875,3.513,13.97,10.347,17.923l192.249,112.748"
	/>
<path fill="#4E3863" d="M202.598,0.001v215.72h-202.6c0-28.35-0.018-56.7,0.002-85.05c0.01-7.88,3.518-13.97,10.348-17.92
	L202.598,0.001z"/>
<path fill="#4E3863" d="M202.24,215.717h202.596c0,28.349,0.019,56.698,0,85.046c-0.005,7.875-3.513,13.97-10.348,17.923
	L202.24,431.434"/>
<path fill="#4E3863" d="M202.24,215.717h202.596c0-28.349,0.019-56.698,0-85.046c-0.005-7.875-3.513-13.97-10.348-17.923L202.24,0"
	/>
</svg>
